<svg xmlns="http://www.w3.org/2000/svg" viewBox="0 0 500 500" width="500" height="500">
    <style>
        .st0{fill:#E0E0E0}.st1{fill:#FFA000}.st2{fill:#FFE082}.st3{fill:#FFECB3}.st4{fill:#6D4C41}.st5{fill:#4CAF50}.st6{fill:#FFFFFF}.st7{fill:#388E3C}
    </style>
    <g>
        <circle class="st0" cx="250" cy="250" r="250"/>
        <path class="st1" d="M240.9 245.6s-12.3-9.4-21.4-.3c-9.1 9.1 5.2 21.7 5.2 21.7l-14.6 14.6c-4.4-1.9-8.6-4.2-12.5-6.9-14.2-9.7-25.8-23.4-33.5-39.2-2.9-6-5.2-12.4-6.7-19-4.1-18.1-1.6-37.4 7.7-53.9l15-15c9.3-8.4 23.8-1.2 23.8-1.2s46.1 30.1 36.6 40.6c-9.5 10.5-18.9 1.2-18.9 1.2l-18.9-14.4S187.5 188 197 198.3c9.6 10.3 18.6.6 18.6.6l25.3 27.3c10.8 11.6.3 18.6.3 18.6l-.3.8z"/>
        <path class="st2" d="M279.5 307.4c0 16.4-13.3 29.6-29.7 29.6h-25.6c-16.4 0-29.7-13.3-29.7-29.6v-54.9c0-16.4 13.3-29.7 29.7-29.7h25.6c16.4 0 29.7 13.3 29.7 29.7v54.9z"/>
        <path class="st3" d="M274.8 304.8c0 16.4-13.3 29.7-29.7 29.7h-25.6c-16.4 0-29.7-13.3-29.7-29.7v-54.9c0-16.4 13.3-29.7 29.7-29.7h25.6c16.4 0 29.7 13.3 29.7 29.7v54.9z"/>
        <ellipse class="st4" cx="237.7" cy="246.5" rx="6.5" ry="8.5"/>
        <path class="st5" d="M322 240.5c0 52.8-42.8 95.5-95.5 95.5-17.1 0-33.2-4.5-47.1-12.4l-13.7 3.1 3.1-12.5 3.7-14.7c-9.3-14.2-14.8-31.3-14.8-49.7 0-15.9 4.1-30.8 11.3-43.8l.1-.2c.7-1.3 1.5-2.5 2.3-3.7 14.7-22.4 40-37.3 68.8-37.3 45.2.4 81.8 36.9 81.8 82.1v-6.4z"/>
        <path class="st6" d="M302.2 238.1c0 41.8-33.9 75.7-75.7 75.7-13.5 0-26.3-3.6-37.3-9.8l-10.9 2.5 2.5-9.9 2.9-11.7c-7.4-11.3-11.7-24.8-11.7-39.3 0-12.6 3.3-24.4 9-34.7l.1-.1c.6-1 1.2-2 1.8-2.9 11.7-17.7 31.7-29.5 54.5-29.5 35.6.3 64.8 29.3 64.8 65.1v-5.4z"/>
        <path class="st7" d="M244.2 213.3l-4.1-1c-1.2-.3-2.4 0-3.2.8l-2.1 2.2c-.8.9-2.1 1.2-3.2.7-2.5-1-7.9-4.1-12-12-1.1-2-.7-4.1.6-5.2l1.9-1.5c.9-.7 1.4-1.9 1.2-3.1l-1.1-4c-.4-1.5-1.6-3.8-4.2-3.8-1.1 0-2.1.5-2.9 1.3l-2.1 2.2c-2.8 2.9-3.5 7.5-1.6 11.7 3.6 8.1 9.4 15.5 16.9 21.3 4.6 3.5 9.8 4.7 13.9 3.2l3-1.1c1.1-.4 1.9-1.3 2.3-2.4.4-1.1.2-2.3-.3-3.2l-2.3-3.9c-.5-1-1.6-1.6-2.7-1.2z"/>
    </g>
</svg>